<?xml version="1.0" encoding="utf-8"?>
<svg width="1045pt" height="538pt" viewBox="0.00 0.00 1044.81 538.00" xmlns="http://www.w3.org/2000/svg">
  <g id="graph0" class="graph" transform="scale(1 1) rotate(0) translate(4 534)">
    <title>%3</title>
    <polygon fill="white" stroke="transparent" points="-4,4 -4,-534 1040.81,-534 1040.81,4 -4,4"/>
    <g id="node1" class="node">
      <title>NOMINATION</title>
      <polygon fill="white" stroke="black" points="759.6,-314 682.6,-314 682.6,-278 759.6,-278 759.6,-314"/>
      <polygon fill="none" stroke="black" points="763.6,-318 678.6,-318 678.6,-274 763.6,-274 763.6,-318"/>
      <text text-anchor="middle" x="721.1" y="-293.5" font-family="Courier,monospace" font-size="10.00" style="white-space: pre;">NOMINATION</text>
    </g>
    <g id="node26" class="node">
      <title>ASSOCIATED</title>
      <polygon fill="white" stroke="black" points="870.7,-422 806.5,-404 870.7,-386 934.91,-404 870.7,-422"/>
      <text text-anchor="middle" x="870.7" y="-401.5" font-family="Courier,monospace" font-size="10.00" style="white-space: pre;">ASSOCIATED</text>
    </g>
    <g id="edge22" class="edge">
      <title>NOMINATION--ASSOCIATED</title>
      <path fill="none" stroke="black" d="M741.14,-318.23C757.19,-335.93 781.52,-360.41 806.6,-377 817.14,-383.97 829.77,-389.79 840.95,-394.23"/>
      <text text-anchor="middle" x="785.1" y="-364" font-family="Courier,monospace" font-size="10.00" style="white-space: pre;">N</text>
    </g>
    <g id="node27" class="node">
      <title>NOMINATES</title>
      <polygon fill="white" stroke="black" points="870.7,-206 811.49,-188 870.7,-170 929.92,-188 870.7,-206"/>
      <text text-anchor="middle" x="870.7" y="-185.5" font-family="Courier,monospace" font-size="10.00" style="white-space: pre;">NOMINATES</text>
    </g>
    <g id="edge24" class="edge">
      <title>NOMINATION--NOMINATES</title>
      <path fill="none" stroke="black" d="M741.14,-273.77C757.19,-256.07 781.52,-231.59 806.6,-215 817.44,-207.84 830.48,-201.88 841.9,-197.4"/>
      <text text-anchor="middle" x="785.1" y="-235" font-family="Courier,monospace" font-size="10.00" style="white-space: pre;">N</text>
    </g>
    <g id="node2" class="node">
      <title>NOMINATION_NomId</title>
      <ellipse fill="white" stroke="black" cx="576.15" cy="-512" rx="27.84" ry="18"/>
      <text text-anchor="start" x="560.65" y="-510.5" font-family="Courier,monospace" text-decoration="underline" font-size="10.00" style="white-space: pre;">NomId</text>
    </g>
    <g id="edge1" class="edge">
      <title>NOMINATION_NomId--NOMINATION</title>
      <path fill="none" stroke="black" d="M601.71,-505.1C613.19,-500.85 626.33,-494.38 635.6,-485 683.34,-436.67 706.65,-356.69 715.58,-318.13"/>
    </g>
    <g id="node3" class="node">
      <title>NOMINATION_NominationName</title>
      <ellipse fill="white" stroke="black" cx="576.15" cy="-458" rx="59.41" ry="18"/>
      <text text-anchor="middle" x="576.15" y="-455.5" font-family="Courier,monospace" font-size="10.00" style="white-space: pre;">NominationName</text>
    </g>
    <g id="edge2" class="edge">
      <title>NOMINATION_NominationName--NOMINATION</title>
      <path fill="none" stroke="black" d="M615.28,-444.3C622.5,-440.66 629.65,-436.25 635.6,-431 672.02,-398.93 698.22,-347.38 711.09,-318.14"/>
    </g>
    <g id="node4" class="node">
      <title>NOMINATION_Winner</title>
      <ellipse fill="white" stroke="black" cx="576.15" cy="-404" rx="31.4" ry="18"/>
      <text text-anchor="middle" x="576.15" y="-401.5" font-family="Courier,monospace" font-size="10.00" style="white-space: pre;">Winner</text>
    </g>
    <g id="edge3" class="edge">
      <title>NOMINATION_Winner--NOMINATION</title>
      <path fill="none" stroke="black" d="M602.59,-394.43C613.22,-389.89 625.44,-383.93 635.6,-377 660.45,-360.06 684.81,-335.63 700.94,-318.04"/>
    </g>
    <g id="node5" class="node">
      <title>NOMINATION_Detail</title>
      <ellipse fill="white" stroke="black" cx="576.15" cy="-350" rx="38.03" ry="18"/>
      <text text-anchor="middle" x="576.15" y="-347.5" font-family="Courier,monospace" font-size="10.00" style="white-space: pre;">Detail ?</text>
    </g>
    <g id="edge4" class="edge">
      <title>NOMINATION_Detail--NOMINATION</title>
      <path fill="none" stroke="black" d="M606.42,-338.94C627.17,-331.1 655.31,-320.47 678.4,-311.75"/>
    </g>
    <g id="node6" class="node">
      <title>NOMINATION_Note</title>
      <ellipse fill="white" stroke="black" cx="576.15" cy="-296" rx="31.4" ry="18"/>
      <text text-anchor="middle" x="576.15" y="-293.5" font-family="Courier,monospace" font-size="10.00" style="white-space: pre;">Note ?</text>
    </g>
    <g id="edge5" class="edge">
      <title>NOMINATION_Note--NOMINATION</title>
      <path fill="none" stroke="black" d="M607.46,-296C628.12,-296 655.73,-296 678.44,-296"/>
    </g>
    <g id="node7" class="node">
      <title>NOMINATION_Citation</title>
      <ellipse fill="white" stroke="black" cx="576.15" cy="-242" rx="45.15" ry="18"/>
      <text text-anchor="middle" x="576.15" y="-239.5" font-family="Courier,monospace" font-size="10.00" style="white-space: pre;">Citation ?</text>
    </g>
    <g id="edge6" class="edge">
      <title>NOMINATION_Citation--NOMINATION</title>
      <path fill="none" stroke="black" d="M609.59,-254.25C630.02,-261.97 656.58,-272.01 678.55,-280.3"/>
    </g>
    <g id="node8" class="node">
      <title>NOMINATION_NomineeOrg</title>
      <ellipse fill="white" stroke="black" cx="576.15" cy="-188" rx="52.28" ry="18"/>
      <text text-anchor="middle" x="576.15" y="-185.5" font-family="Courier,monospace" font-size="10.00" style="white-space: pre;">NomineeOrg ?</text>
    </g>
    <g id="edge7" class="edge">
      <title>NOMINATION_NomineeOrg--NOMINATION</title>
      <path fill="none" stroke="black" d="M611.26,-201.45C619.52,-205.32 628.12,-209.9 635.6,-215 660.45,-231.94 684.81,-256.37 700.94,-273.96"/>
    </g>
    <g id="node9" class="node">
      <title>MAKES</title>
      <polygon fill="white" stroke="black" points="576.15,-147.92 536.86,-130 576.15,-112.08 615.43,-130 576.15,-147.92"/>
      <polygon fill="none" stroke="black" points="576.15,-152.31 527.25,-130 576.15,-107.69 625.04,-130 576.15,-152.31"/>
      <text text-anchor="middle" x="576.15" y="-127.5" font-family="Courier,monospace" font-size="10.00" style="white-space: pre;">MAKES</text>
    </g>
    <g id="edge9" class="edge">
      <title>MAKES--NOMINATION</title>
      <path fill="none" stroke="black" d="M604.03,-138.4C615.03,-143.59 627.26,-150.58 636.96,-159.54 672.8,-193.05 699.28,-244.03 712.53,-273.08"/>
      <path fill="none" stroke="transparent" d="M603.18,-140.21C614.04,-145.33 626.27,-152.31 635.6,-161 671.02,-193.97 697.5,-244.95 710.71,-273.91"/>
      <path fill="none" stroke="black" d="M602.33,-142.02C613.05,-147.07 625.28,-154.05 634.24,-162.46 669.25,-194.89 695.73,-245.87 708.89,-274.74"/>
      <text text-anchor="middle" x="657.1" y="-190" font-family="Courier,monospace" font-size="10.00" style="white-space: pre;">N</text>
    </g>
    <g id="node10" class="node">
      <title>CATEGORY</title>
      <polygon fill="white" stroke="black" points="469.69,-175 404.69,-175 404.69,-139 469.69,-139 469.69,-175"/>
      <polygon fill="none" stroke="black" points="473.69,-179 400.69,-179 400.69,-135 473.69,-135 473.69,-179"/>
      <text text-anchor="middle" x="437.19" y="-154.5" font-family="Courier,monospace" font-size="10.00" style="white-space: pre;">CATEGORY</text>
    </g>
    <g id="edge8" class="edge">
      <title>CATEGORY--MAKES</title>
      <path fill="none" stroke="black" d="M473.43,-148.01C494.35,-143.89 520.64,-138.71 541.2,-134.65"/>
      <path fill="none" stroke="transparent" d="M473.82,-149.98C494.74,-145.85 521.03,-140.67 541.58,-136.62"/>
      <path fill="none" stroke="black" d="M474.2,-151.94C495.13,-147.81 521.41,-142.63 541.97,-138.58"/>
      <text text-anchor="middle" x="495.19" y="-149" font-family="Courier,monospace" font-size="10.00" style="white-space: pre;">1</text>
    </g>
    <g id="node11" class="node">
      <title>NOMINEE</title>
      <polygon fill="white" stroke="black" points="1036.81,-169 977.81,-169 977.81,-133 1036.81,-133 1036.81,-169"/>
      <text text-anchor="middle" x="1007.31" y="-148.5" font-family="Courier,monospace" font-size="10.00" style="white-space: pre;">NOMINEE</text>
    </g>
    <g id="node12" class="node">
      <title>NOMINEE_NomineeId</title>
      <ellipse fill="white" stroke="black" cx="870.7" cy="-134" rx="41.59" ry="18"/>
      <text text-anchor="start" x="843.2" y="-132.5" font-family="Courier,monospace" text-decoration="underline" font-size="10.00" style="white-space: pre;">NomineeId</text>
    </g>
    <g id="edge10" class="edge">
      <title>NOMINEE_NomineeId--NOMINEE</title>
      <path fill="none" stroke="black" d="M911,-138.96C932.26,-141.65 958.06,-144.91 977.45,-147.36"/>
    </g>
    <g id="node13" class="node">
      <title>NOMINEE_Name</title>
      <ellipse fill="white" stroke="black" cx="870.7" cy="-80" rx="27" ry="18"/>
      <text text-anchor="middle" x="870.7" y="-77.5" font-family="Courier,monospace" font-size="10.00" style="white-space: pre;">Name</text>
    </g>
    <g id="edge11" class="edge">
      <title>NOMINEE_Name--NOMINEE</title>
      <path fill="none" stroke="black" d="M894.56,-88.83C906.72,-93.76 921.79,-100.26 934.81,-107 949.82,-114.78 965.91,-124.54 979.01,-132.89"/>
    </g>
    <g id="node14" class="node">
      <title>NOMINEE_NameShortForm</title>
      <ellipse fill="white" stroke="black" cx="870.7" cy="-242" rx="55.85" ry="18"/>
      <text text-anchor="middle" x="870.7" y="-239.5" font-family="Courier,monospace" font-size="10.00" style="white-space: pre;">NameShortForm</text>
    </g>
    <g id="edge12" class="edge">
      <title>NOMINEE_NameShortForm--NOMINEE</title>
      <path fill="none" stroke="black" d="M908.44,-228.67C917.36,-224.79 926.67,-220.19 934.81,-215 955.32,-201.93 975.69,-182.95 989.41,-169.06"/>
    </g>
    <g id="node15" class="node">
      <title>FILM</title>
      <polygon fill="white" stroke="black" points="1034.31,-368 980.31,-368 980.31,-332 1034.31,-332 1034.31,-368"/>
      <text text-anchor="middle" x="1007.31" y="-347.5" font-family="Courier,monospace" font-size="10.00" style="white-space: pre;">FILM</text>
    </g>
    <g id="node16" class="node">
      <title>FILM_FilmId</title>
      <ellipse fill="white" stroke="black" cx="870.7" cy="-350" rx="31.4" ry="18"/>
      <text text-anchor="start" x="852.2" y="-348.5" font-family="Courier,monospace" text-decoration="underline" font-size="10.00" style="white-space: pre;">FilmId</text>
    </g>
    <g id="edge13" class="edge">
      <title>FILM_FilmId--FILM</title>
      <path fill="none" stroke="black" d="M901.91,-350C925.47,-350 957.86,-350 980.28,-350"/>
    </g>
    <g id="node17" class="node">
      <title>FILM_FilmName</title>
      <ellipse fill="white" stroke="black" cx="870.7" cy="-296" rx="38.03" ry="18"/>
      <text text-anchor="start" x="846.2" y="-294.5" font-family="Courier,monospace" text-decoration="underline" font-size="10.00" style="white-space: pre;">FilmName</text>
    </g>
    <g id="edge14" class="edge">
      <title>FILM_FilmName--FILM</title>
      <path fill="none" stroke="black" d="M900.25,-307.45C923.86,-316.93 957.13,-330.27 980.08,-339.48"/>
    </g>
    <g id="node18" class="node">
      <title>CATEGORY_CategoryName</title>
      <ellipse fill="white" stroke="black" cx="287.64" cy="-126" rx="52.28" ry="18"/>
      <text text-anchor="start" x="251.14" y="-124.5" font-family="Courier,monospace" text-decoration="underline" font-size="10.00" style="white-space: pre;">CategoryName</text>
    </g>
    <g id="edge15" class="edge">
      <title>CATEGORY_CategoryName--CATEGORY</title>
      <path fill="none" stroke="black" d="M332.91,-135.3C354.47,-139.83 380.06,-145.21 400.37,-149.47"/>
    </g>
    <g id="node19" class="node">
      <title>CATEGORY_CanonicalCategoty</title>
      <ellipse fill="white" stroke="black" cx="287.64" cy="-242" rx="70.1" ry="18"/>
      <text text-anchor="middle" x="287.64" y="-239.5" font-family="Courier,monospace" font-size="10.00" style="white-space: pre;">CanonicalCategoty</text>
    </g>
    <g id="edge16" class="edge">
      <title>CATEGORY_CanonicalCategoty--CATEGORY</title>
      <path fill="none" stroke="black" d="M330.71,-227.59C339.81,-223.92 349.24,-219.67 357.69,-215 376.09,-204.84 395.08,-190.92 409.77,-179.26"/>
    </g>
    <g id="node20" class="node">
      <title>BELONG</title>
      <polygon fill="white" stroke="black" points="287.64,-201.86 243.35,-184 287.64,-166.14 331.93,-184 287.64,-201.86"/>
      <polygon fill="none" stroke="black" points="287.64,-206.14 232.72,-184 287.64,-161.86 342.57,-184 287.64,-206.14"/>
      <text text-anchor="middle" x="287.64" y="-181.5" font-family="Courier,monospace" font-size="10.00" style="white-space: pre;">BELONG</text>
    </g>
    <g id="edge18" class="edge">
      <title>BELONG--CATEGORY</title>
      <path fill="none" stroke="black" d="M325.51,-175.22C348.39,-171.03 377.55,-165.7 400.14,-161.56"/>
      <path fill="none" stroke="transparent" d="M325.87,-177.19C348.75,-173 377.91,-167.67 400.5,-163.53"/>
      <path fill="none" stroke="black" d="M326.23,-179.15C349.11,-174.97 378.27,-169.63 400.86,-165.5"/>
      <text text-anchor="middle" x="379.19" y="-171" font-family="Courier,monospace" font-size="10.00" style="white-space: pre;">N</text>
    </g>
    <g id="node21" class="node">
      <title>CLASS</title>
      <polygon fill="white" stroke="black" points="174.59,-202 120.59,-202 120.59,-166 174.59,-166 174.59,-202"/>
      <text text-anchor="middle" x="147.59" y="-181.5" font-family="Courier,monospace" font-size="10.00" style="white-space: pre;">CLASS</text>
    </g>
    <g id="edge17" class="edge">
      <title>CLASS--BELONG</title>
      <path fill="none" stroke="black" d="M174.88,-184C191.23,-184 212.86,-184 232.72,-184"/>
      <text text-anchor="middle" x="196.09" y="-187" font-family="Courier,monospace" font-size="10.00" style="white-space: pre;">1</text>
    </g>
    <g id="node22" class="node">
      <title>CLASS_ClassName</title>
      <ellipse fill="white" stroke="black" cx="41.8" cy="-184" rx="41.59" ry="18"/>
      <text text-anchor="start" x="14.3" y="-182.5" font-family="Courier,monospace" text-decoration="underline" font-size="10.00" style="white-space: pre;">ClassName</text>
    </g>
    <g id="edge19" class="edge">
      <title>CLASS_ClassName--CLASS</title>
      <path fill="none" stroke="black" d="M83.82,-184C96.17,-184 109.38,-184 120.49,-184"/>
    </g>
    <g id="node23" class="node">
      <title>CEREMONY</title>
      <polygon fill="white" stroke="black" points="469.69,-90 404.69,-90 404.69,-54 469.69,-54 469.69,-90"/>
      <text text-anchor="middle" x="437.19" y="-69.5" font-family="Courier,monospace" font-size="10.00" style="white-space: pre;">CEREMONY</text>
    </g>
    <g id="node28" class="node">
      <title>OCCURS</title>
      <polygon fill="white" stroke="black" points="576.15,-90 531.9,-72 576.15,-54 620.39,-72 576.15,-90"/>
      <text text-anchor="middle" x="576.15" y="-69.5" font-family="Courier,monospace" font-size="10.00" style="white-space: pre;">OCCURS</text>
    </g>
    <g id="edge26" class="edge">
      <title>CEREMONY--OCCURS</title>
      <path fill="none" stroke="black" d="M469.96,-70C488.37,-70 511.81,-70 531.88,-70"/>
      <path fill="none" stroke="transparent" d="M469.96,-72C488.37,-72 511.81,-72 531.88,-72"/>
      <path fill="none" stroke="black" d="M469.96,-74C488.37,-74 511.81,-74 531.88,-74"/>
      <text text-anchor="middle" x="495.19" y="-75" font-family="Courier,monospace" font-size="10.00" style="white-space: pre;">1</text>
    </g>
    <g id="node24" class="node">
      <title>CEREMONY_CeremonyNumber</title>
      <ellipse fill="white" stroke="black" cx="287.64" cy="-18" rx="59.41" ry="18"/>
      <text text-anchor="start" x="245.14" y="-16.5" font-family="Courier,monospace" text-decoration="underline" font-size="10.00" style="white-space: pre;">CeremonyNumber</text>
    </g>
    <g id="edge20" class="edge">
      <title>CEREMONY_CeremonyNumber--CEREMONY</title>
      <path fill="none" stroke="black" d="M326.26,-31.77C350.5,-40.64 381.68,-52.05 404.63,-60.45"/>
    </g>
    <g id="node25" class="node">
      <title>CEREMONY_Year</title>
      <ellipse fill="white" stroke="black" cx="287.64" cy="-72" rx="27" ry="18"/>
      <text text-anchor="middle" x="287.64" y="-69.5" font-family="Courier,monospace" font-size="10.00" style="white-space: pre;">Year</text>
    </g>
    <g id="edge21" class="edge">
      <title>CEREMONY_Year--CEREMONY</title>
      <path fill="none" stroke="black" d="M314.68,-72C339.75,-72 377.7,-72 404.51,-72"/>
    </g>
    <g id="edge23" class="edge">
      <title>ASSOCIATED--FILM</title>
      <path fill="none" stroke="black" d="M897.23,-391.6C920.95,-382.09 955.66,-368.16 979.36,-358.66"/>
      <path fill="none" stroke="transparent" d="M897.98,-393.46C921.69,-383.95 956.4,-370.02 980.1,-360.51"/>
      <path fill="none" stroke="black" d="M898.72,-395.32C922.44,-385.8 957.15,-371.88 980.84,-362.37"/>
      <text text-anchor="middle" x="956.31" y="-373" font-family="Courier,monospace" font-size="10.00" style="white-space: pre;">N</text>
    </g>
    <g id="edge25" class="edge">
      <title>NOMINATES--NOMINEE</title>
      <path fill="none" stroke="black" d="M902.05,-177.58C924.56,-171.4 954.85,-163.07 976.88,-157.01"/>
      <path fill="none" stroke="transparent" d="M902.58,-179.51C925.09,-173.32 955.38,-165 977.41,-158.94"/>
      <path fill="none" stroke="black" d="M903.11,-181.44C925.62,-175.25 955.91,-166.93 977.94,-160.87"/>
      <text text-anchor="middle" x="956.31" y="-169" font-family="Courier,monospace" font-size="10.00" style="white-space: pre;">N</text>
    </g>
    <g id="edge27" class="edge">
      <title>OCCURS--NOMINATION</title>
      <path fill="none" stroke="black" d="M603.66,-77.4C615.05,-81.73 627.62,-88.08 637.04,-97.61 686.97,-149.3 709.62,-233.57 718,-273.48"/>
      <path fill="none" stroke="transparent" d="M602.95,-79.27C614.15,-83.51 626.72,-89.87 635.6,-99 685.04,-149.81 707.69,-234.09 716.05,-273.89"/>
      <path fill="none" stroke="black" d="M602.24,-81.15C613.25,-85.3 625.81,-91.65 634.17,-100.39 683.11,-150.33 705.76,-234.61 714.09,-274.3"/>
      <text text-anchor="middle" x="657.1" y="-129" font-family="Courier,monospace" font-size="10.00" style="white-space: pre;">N</text>
    </g>
  </g>
  <path style="fill: rgb(216, 216, 216); stroke: rgb(0, 0, 0);" d="M 530.697 459.716 L 577.133 438.489"/>
  <path style="fill: rgb(216, 216, 216); stroke: rgb(0, 0, 0);" d="M 634.846 464.36 L 577.133 437.162"/>
  <path style="fill: rgb(216, 216, 216); stroke: rgb(0, 0, 0);" d="M 581.113 485.588 L 633.52 465.023"/>
  <path style="fill: rgb(216, 216, 216); stroke: rgb(0, 0, 0);" d="M 581.776 485.588 L 521.41 460.38"/>
</svg>