<?xml version="1.0" encoding="utf-8"?>
<svg width="1045pt" height="484pt" viewBox="0.00 0.00 1044.81 484.00" xmlns="http://www.w3.org/2000/svg">
  <g id="graph0" class="graph" transform="scale(1 1) rotate(0) translate(4 480)">
    <title>%3</title>
    <polygon fill="white" stroke="transparent" points="-4,4 -4,-480 1040.81,-480 1040.81,4 -4,4"/>
    <g id="node1" class="node">
      <title>NOMINATION</title>
      <polygon fill="white" stroke="black" points="759.6,-287 682.6,-287 682.6,-251 759.6,-251 759.6,-287"/>
      <polygon fill="none" stroke="black" points="763.6,-291 678.6,-291 678.6,-247 763.6,-247 763.6,-291"/>
      <text text-anchor="middle" x="721.1" y="-266.5" font-family="Courier,monospace" font-size="10.00" style="white-space: pre;">NOMINATION</text>
    </g>
    <g id="node24" class="node">
      <title>ASSOCIATED</title>
      <polygon fill="white" stroke="black" points="870.7,-341 806.5,-323 870.7,-305 934.91,-323 870.7,-341"/>
      <text text-anchor="middle" x="870.7" y="-320.5" font-family="Courier,monospace" font-size="10.00" style="white-space: pre;">ASSOCIATED</text>
    </g>
    <g id="edge20" class="edge">
      <title>NOMINATION--ASSOCIATED</title>
      <path fill="none" stroke="black" d="M763.61,-284.19C788.68,-293.36 819.94,-304.79 842.02,-312.87"/>
      <text text-anchor="middle" x="785.1" y="-295" font-family="Courier,monospace" font-size="10.00" style="white-space: pre;">N</text>
    </g>
    <g id="node25" class="node">
      <title>NOMINATES</title>
      <polygon fill="white" stroke="black" points="870.7,-233 811.49,-215 870.7,-197 929.92,-215 870.7,-233"/>
      <text text-anchor="middle" x="870.7" y="-212.5" font-family="Courier,monospace" font-size="10.00" style="white-space: pre;">NOMINATES</text>
    </g>
    <g id="edge22" class="edge">
      <title>NOMINATION--NOMINATES</title>
      <path fill="none" stroke="black" d="M763.61,-253.81C789.02,-244.52 820.79,-232.89 842.91,-224.8"/>
      <text text-anchor="middle" x="785.1" y="-249" font-family="Courier,monospace" font-size="10.00" style="white-space: pre;">N</text>
    </g>
    <g id="node2" class="node">
      <title>NOMINATION_NomId</title>
      <ellipse fill="white" stroke="black" cx="576.15" cy="-458" rx="27.84" ry="18"/>
      <text text-anchor="start" x="560.65" y="-456.5" font-family="Courier,monospace" text-decoration="underline" font-size="10.00" style="white-space: pre;">NomId</text>
    </g>
    <g id="edge1" class="edge">
      <title>NOMINATION_NomId--NOMINATION</title>
      <path fill="none" stroke="black" d="M601.76,-450.74C613.11,-446.44 626.13,-440.02 635.6,-431 677.62,-390.95 702.75,-325.38 713.66,-291.24"/>
    </g>
    <g id="node3" class="node">
      <title>NOMINATION_NominationName</title>
      <ellipse fill="white" stroke="black" cx="576.15" cy="-404" rx="59.41" ry="18"/>
      <text text-anchor="middle" x="576.15" y="-401.5" font-family="Courier,monospace" font-size="10.00" style="white-space: pre;">NominationName</text>
    </g>
    <g id="edge2" class="edge">
      <title>NOMINATION_NominationName--NOMINATION</title>
      <path fill="none" stroke="black" d="M614.25,-390.1C621.7,-386.44 629.2,-382.07 635.6,-377 666.21,-352.76 692.28,-315.25 707.07,-291.43"/>
    </g>
    <g id="node4" class="node">
      <title>NOMINATION_Winner</title>
      <ellipse fill="white" stroke="black" cx="576.15" cy="-350" rx="31.4" ry="18"/>
      <text text-anchor="middle" x="576.15" y="-347.5" font-family="Courier,monospace" font-size="10.00" style="white-space: pre;">Winner</text>
    </g>
    <g id="edge3" class="edge">
      <title>NOMINATION_Winner--NOMINATION</title>
      <path fill="none" stroke="black" d="M601.69,-339.56C612.28,-334.82 624.72,-328.96 635.6,-323 653.32,-313.31 672.33,-301.31 687.82,-291.09"/>
    </g>
    <g id="node5" class="node">
      <title>NOMINATION_Detail</title>
      <ellipse fill="white" stroke="black" cx="576.15" cy="-296" rx="38.03" ry="18"/>
      <text text-anchor="middle" x="576.15" y="-293.5" font-family="Courier,monospace" font-size="10.00" style="white-space: pre;">Detail ?</text>
    </g>
    <g id="edge4" class="edge">
      <title>NOMINATION_Detail--NOMINATION</title>
      <path fill="none" stroke="black" d="M612.12,-289.4C632.12,-285.62 657.34,-280.85 678.37,-276.88"/>
    </g>
    <g id="node6" class="node">
      <title>NOMINATION_Note</title>
      <ellipse fill="white" stroke="black" cx="576.15" cy="-242" rx="31.4" ry="18"/>
      <text text-anchor="middle" x="576.15" y="-239.5" font-family="Courier,monospace" font-size="10.00" style="white-space: pre;">Note ?</text>
    </g>
    <g id="edge5" class="edge">
      <title>NOMINATION_Note--NOMINATION</title>
      <path fill="none" stroke="black" d="M606.08,-247.46C626.88,-251.39 655.25,-256.75 678.48,-261.14"/>
    </g>
    <g id="node7" class="node">
      <title>NOMINATION_Citation</title>
      <ellipse fill="white" stroke="black" cx="576.15" cy="-188" rx="45.15" ry="18"/>
      <text text-anchor="middle" x="576.15" y="-185.5" font-family="Courier,monospace" font-size="10.00" style="white-space: pre;">Citation ?</text>
    </g>
    <g id="edge6" class="edge">
      <title>NOMINATION_Citation--NOMINATION</title>
      <path fill="none" stroke="black" d="M607.57,-201.1C616.71,-205.29 626.68,-210.12 635.6,-215 653.32,-224.69 672.33,-236.69 687.82,-246.91"/>
    </g>
    <g id="node8" class="node">
      <title>MAKES</title>
      <polygon fill="white" stroke="black" points="576.15,-147.92 536.86,-130 576.15,-112.08 615.43,-130 576.15,-147.92"/>
      <polygon fill="none" stroke="black" points="576.15,-152.31 527.25,-130 576.15,-107.69 625.04,-130 576.15,-152.31"/>
      <text text-anchor="middle" x="576.15" y="-127.5" font-family="Courier,monospace" font-size="10.00" style="white-space: pre;">MAKES</text>
    </g>
    <g id="edge8" class="edge">
      <title>MAKES--NOMINATION</title>
      <path fill="none" stroke="black" d="M603.33,-138.75C614.3,-144.03 626.72,-150.99 636.89,-159.47 667.17,-184.92 693.43,-222.19 708.49,-245.82"/>
      <path fill="none" stroke="transparent" d="M602.46,-140.55C613.32,-145.77 625.74,-152.74 635.6,-161 665.53,-186.07 691.79,-223.34 706.8,-246.89"/>
      <path fill="none" stroke="black" d="M601.6,-142.35C612.34,-147.52 624.76,-154.48 634.32,-162.53 663.9,-187.22 690.16,-224.49 705.12,-247.97"/>
      <text text-anchor="middle" x="657.1" y="-188" font-family="Courier,monospace" font-size="10.00" style="white-space: pre;">N</text>
    </g>
    <g id="node9" class="node">
      <title>CATEGORY</title>
      <polygon fill="white" stroke="black" points="469.69,-175 404.69,-175 404.69,-139 469.69,-139 469.69,-175"/>
      <polygon fill="none" stroke="black" points="473.69,-179 400.69,-179 400.69,-135 473.69,-135 473.69,-179"/>
      <text text-anchor="middle" x="437.19" y="-154.5" font-family="Courier,monospace" font-size="10.00" style="white-space: pre;">CATEGORY</text>
    </g>
    <g id="edge7" class="edge">
      <title>CATEGORY--MAKES</title>
      <path fill="none" stroke="black" d="M473.43,-148.01C494.35,-143.89 520.64,-138.71 541.2,-134.65"/>
      <path fill="none" stroke="transparent" d="M473.82,-149.98C494.74,-145.85 521.03,-140.67 541.58,-136.62"/>
      <path fill="none" stroke="black" d="M474.2,-151.94C495.13,-147.81 521.41,-142.63 541.97,-138.58"/>
      <text text-anchor="middle" x="495.19" y="-149" font-family="Courier,monospace" font-size="10.00" style="white-space: pre;">1</text>
    </g>
    <g id="node10" class="node">
      <title>NOMINEE</title>
      <polygon fill="white" stroke="black" points="1036.81,-233 977.81,-233 977.81,-197 1036.81,-197 1036.81,-233"/>
      <text text-anchor="middle" x="1007.31" y="-212.5" font-family="Courier,monospace" font-size="10.00" style="white-space: pre;">NOMINEE</text>
    </g>
    <g id="node11" class="node">
      <title>NOMINEE_NomineeId</title>
      <ellipse fill="white" stroke="black" cx="870.7" cy="-161" rx="41.59" ry="18"/>
      <text text-anchor="start" x="843.2" y="-159.5" font-family="Courier,monospace" text-decoration="underline" font-size="10.00" style="white-space: pre;">NomineeId</text>
    </g>
    <g id="edge9" class="edge">
      <title>NOMINEE_NomineeId--NOMINEE</title>
      <path fill="none" stroke="black" d="M901.91,-173.12C924.54,-182.2 955.32,-194.54 977.58,-203.48"/>
    </g>
    <g id="node12" class="node">
      <title>NOMINEE_Name</title>
      <ellipse fill="white" stroke="black" cx="870.7" cy="-269" rx="27" ry="18"/>
      <text text-anchor="middle" x="870.7" y="-266.5" font-family="Courier,monospace" font-size="10.00" style="white-space: pre;">Name</text>
    </g>
    <g id="edge10" class="edge">
      <title>NOMINEE_Name--NOMINEE</title>
      <path fill="none" stroke="black" d="M894.23,-259.96C917.13,-250.77 952.69,-236.51 977.6,-226.52"/>
    </g>
    <g id="node13" class="node">
      <title>FILM</title>
      <polygon fill="white" stroke="black" points="1034.31,-395 980.31,-395 980.31,-359 1034.31,-359 1034.31,-395"/>
      <text text-anchor="middle" x="1007.31" y="-374.5" font-family="Courier,monospace" font-size="10.00" style="white-space: pre;">FILM</text>
    </g>
    <g id="node14" class="node">
      <title>FILM_FilmId</title>
      <ellipse fill="white" stroke="black" cx="870.7" cy="-431" rx="31.4" ry="18"/>
      <text text-anchor="start" x="852.2" y="-429.5" font-family="Courier,monospace" text-decoration="underline" font-size="10.00" style="white-space: pre;">FilmId</text>
    </g>
    <g id="edge11" class="edge">
      <title>FILM_FilmId--FILM</title>
      <path fill="none" stroke="black" d="M896.71,-420.97C920.43,-411.45 955.94,-397.21 980.06,-387.53"/>
    </g>
    <g id="node15" class="node">
      <title>FILM_FilmName</title>
      <ellipse fill="white" stroke="black" cx="870.7" cy="-377" rx="38.03" ry="18"/>
      <text text-anchor="start" x="846.2" y="-375.5" font-family="Courier,monospace" text-decoration="underline" font-size="10.00" style="white-space: pre;">FilmName</text>
    </g>
    <g id="edge12" class="edge">
      <title>FILM_FilmName--FILM</title>
      <path fill="none" stroke="black" d="M909.2,-377C931.76,-377 959.91,-377 980.09,-377"/>
    </g>
    <g id="node16" class="node">
      <title>CATEGORY_CanonicalCategoty</title>
      <ellipse fill="white" stroke="black" cx="287.64" cy="-126" rx="70.1" ry="18"/>
      <text text-anchor="start" x="236.14" y="-124.5" font-family="Courier,monospace" text-decoration="underline" font-size="10.00" style="white-space: pre;">CanonicalCategoty</text>
    </g>
    <g id="edge13" class="edge">
      <title>CATEGORY_CanonicalCategoty--CATEGORY</title>
      <path fill="none" stroke="black" d="M342.33,-137.28C361.61,-141.33 382.87,-145.8 400.28,-149.45"/>
    </g>
    <g id="node17" class="node">
      <title>CATEGORY_CategoryName</title>
      <ellipse fill="white" stroke="black" cx="287.64" cy="-242" rx="52.28" ry="18"/>
      <text text-anchor="middle" x="287.64" y="-239.5" font-family="Courier,monospace" font-size="10.00" style="white-space: pre;">CategoryName</text>
    </g>
    <g id="edge14" class="edge">
      <title>CATEGORY_CategoryName--CATEGORY</title>
      <path fill="none" stroke="black" d="M325.65,-229.59C336.26,-225.49 347.66,-220.54 357.69,-215 376.09,-204.84 395.08,-190.92 409.77,-179.26"/>
    </g>
    <g id="node18" class="node">
      <title>BELONG</title>
      <polygon fill="white" stroke="black" points="287.64,-201.86 243.35,-184 287.64,-166.14 331.93,-184 287.64,-201.86"/>
      <polygon fill="none" stroke="black" points="287.64,-206.14 232.72,-184 287.64,-161.86 342.57,-184 287.64,-206.14"/>
      <text text-anchor="middle" x="287.64" y="-181.5" font-family="Courier,monospace" font-size="10.00" style="white-space: pre;">BELONG</text>
    </g>
    <g id="edge16" class="edge">
      <title>BELONG--CATEGORY</title>
      <path fill="none" stroke="black" d="M325.51,-175.22C348.39,-171.03 377.55,-165.7 400.14,-161.56"/>
      <path fill="none" stroke="transparent" d="M325.87,-177.19C348.75,-173 377.91,-167.67 400.5,-163.53"/>
      <path fill="none" stroke="black" d="M326.23,-179.15C349.11,-174.97 378.27,-169.63 400.86,-165.5"/>
      <text text-anchor="middle" x="379.19" y="-171" font-family="Courier,monospace" font-size="10.00" style="white-space: pre;">N</text>
    </g>
    <g id="node19" class="node">
      <title>CLASS</title>
      <polygon fill="white" stroke="black" points="174.59,-202 120.59,-202 120.59,-166 174.59,-166 174.59,-202"/>
      <text text-anchor="middle" x="147.59" y="-181.5" font-family="Courier,monospace" font-size="10.00" style="white-space: pre;">CLASS</text>
    </g>
    <g id="edge15" class="edge">
      <title>CLASS--BELONG</title>
      <path fill="none" stroke="black" d="M174.88,-184C191.23,-184 212.86,-184 232.72,-184"/>
      <text text-anchor="middle" x="196.09" y="-187" font-family="Courier,monospace" font-size="10.00" style="white-space: pre;">1</text>
    </g>
    <g id="node20" class="node">
      <title>CLASS_ClassName</title>
      <ellipse fill="white" stroke="black" cx="41.8" cy="-184" rx="41.59" ry="18"/>
      <text text-anchor="start" x="14.3" y="-182.5" font-family="Courier,monospace" text-decoration="underline" font-size="10.00" style="white-space: pre;">ClassName</text>
    </g>
    <g id="edge17" class="edge">
      <title>CLASS_ClassName--CLASS</title>
      <path fill="none" stroke="black" d="M83.82,-184C96.17,-184 109.38,-184 120.49,-184"/>
    </g>
    <g id="node21" class="node">
      <title>CEREMONY</title>
      <polygon fill="white" stroke="black" points="469.69,-90 404.69,-90 404.69,-54 469.69,-54 469.69,-90"/>
      <text text-anchor="middle" x="437.19" y="-69.5" font-family="Courier,monospace" font-size="10.00" style="white-space: pre;">CEREMONY</text>
    </g>
    <g id="node26" class="node">
      <title>OCCURS</title>
      <polygon fill="white" stroke="black" points="576.15,-90 531.9,-72 576.15,-54 620.39,-72 576.15,-90"/>
      <text text-anchor="middle" x="576.15" y="-69.5" font-family="Courier,monospace" font-size="10.00" style="white-space: pre;">OCCURS</text>
    </g>
    <g id="edge24" class="edge">
      <title>CEREMONY--OCCURS</title>
      <path fill="none" stroke="black" d="M469.96,-70C488.37,-70 511.81,-70 531.88,-70"/>
      <path fill="none" stroke="transparent" d="M469.96,-72C488.37,-72 511.81,-72 531.88,-72"/>
      <path fill="none" stroke="black" d="M469.96,-74C488.37,-74 511.81,-74 531.88,-74"/>
      <text text-anchor="middle" x="495.19" y="-75" font-family="Courier,monospace" font-size="10.00" style="white-space: pre;">1</text>
    </g>
    <g id="node22" class="node">
      <title>CEREMONY_CeremonyNumber</title>
      <ellipse fill="white" stroke="black" cx="287.64" cy="-18" rx="59.41" ry="18"/>
      <text text-anchor="start" x="245.14" y="-16.5" font-family="Courier,monospace" text-decoration="underline" font-size="10.00" style="white-space: pre;">CeremonyNumber</text>
    </g>
    <g id="edge18" class="edge">
      <title>CEREMONY_CeremonyNumber--CEREMONY</title>
      <path fill="none" stroke="black" d="M326.26,-31.77C350.5,-40.64 381.68,-52.05 404.63,-60.45"/>
    </g>
    <g id="node23" class="node">
      <title>CEREMONY_Year</title>
      <ellipse fill="white" stroke="black" cx="287.64" cy="-72" rx="27" ry="18"/>
      <text text-anchor="middle" x="287.64" y="-69.5" font-family="Courier,monospace" font-size="10.00" style="white-space: pre;">Year</text>
    </g>
    <g id="edge19" class="edge">
      <title>CEREMONY_Year--CEREMONY</title>
      <path fill="none" stroke="black" d="M314.68,-72C339.75,-72 377.7,-72 404.51,-72"/>
    </g>
    <g id="edge21" class="edge">
      <title>ASSOCIATED--FILM</title>
      <path fill="none" stroke="black" d="M898.72,-331.68C922.44,-341.2 957.15,-355.12 980.84,-364.63"/>
      <path fill="none" stroke="transparent" d="M897.98,-333.54C921.69,-343.05 956.4,-356.98 980.1,-366.49"/>
      <path fill="none" stroke="black" d="M897.23,-335.4C920.95,-344.91 955.66,-358.84 979.36,-368.34"/>
      <text text-anchor="middle" x="956.31" y="-360" font-family="Courier,monospace" font-size="10.00" style="white-space: pre;">N</text>
    </g>
    <g id="edge23" class="edge">
      <title>NOMINATES--NOMINEE</title>
      <path fill="none" stroke="black" d="M929.96,-213C946.44,-213 963.66,-213 977.57,-213"/>
      <path fill="none" stroke="transparent" d="M929.96,-215C946.44,-215 963.66,-215 977.57,-215"/>
      <path fill="none" stroke="black" d="M929.96,-217C946.44,-217 963.66,-217 977.57,-217"/>
      <text text-anchor="middle" x="956.31" y="-218" font-family="Courier,monospace" font-size="10.00" style="white-space: pre;">N</text>
    </g>
    <g id="edge25" class="edge">
      <title>OCCURS--NOMINATION</title>
      <path fill="none" stroke="black" d="M603.13,-77.53C614.54,-81.89 627.28,-88.25 637,-97.57 681.21,-140.83 705.87,-210.68 716.22,-246.27"/>
      <path fill="none" stroke="transparent" d="M602.42,-79.4C613.65,-83.68 626.38,-90.04 635.6,-99 679.33,-141.49 703.99,-211.35 714.3,-246.83"/>
      <path fill="none" stroke="black" d="M601.71,-81.26C612.76,-85.47 625.49,-91.83 634.21,-100.43 677.44,-142.16 702.1,-212.02 712.38,-247.39"/>
      <text text-anchor="middle" x="657.1" y="-130" font-family="Courier,monospace" font-size="10.00" style="white-space: pre;">N</text>
    </g>
  </g>
  <path style="fill: rgb(216, 216, 216); stroke: rgb(0, 0, 0);" d="M 528.889 407.901 L 580.029 385.934"/>
  <path style="fill: rgb(216, 216, 216); stroke: rgb(0, 0, 0);" d="M 635.669 408.024 L 579.23 386.179"/>
  <path style="fill: rgb(216, 216, 216); stroke: rgb(0, 0, 0);" d="M 579.904 431.608 L 634.78 408.636"/>
  <path style="fill: rgb(216, 216, 216); stroke: rgb(0, 0, 0);" d="M 581.169 431.642 L 528.276 407.5"/>
</svg>