<?xml version="1.0" encoding="UTF-8" standalone="no"?>
<!DOCTYPE svg PUBLIC "-//W3C//DTD SVG 1.1//EN"
 "http://www.w3.org/Graphics/SVG/1.1/DTD/svg11.dtd">
<!-- Generated by graphviz version 2.43.0 (0)
 -->
<!-- Title: %3 Pages: 1 -->
<svg width="574pt" height="341pt"
 viewBox="0.00 0.00 574.00 341.00" xmlns="http://www.w3.org/2000/svg" xmlns:xlink="http://www.w3.org/1999/xlink">
<g id="graph0" class="graph" transform="scale(1 1) rotate(0) translate(4 337)">
<title>%3</title>
<polygon fill="white" stroke="transparent" points="-4,4 -4,-337 570,-337 570,4 -4,4"/>
<!-- FILM -->
<g id="node1" class="node">
<title>FILM</title>
<polygon fill="white" stroke="transparent" points="265,-59 194,-59 194,0 265,0 265,-59"/>
<polygon fill="none" stroke="black" points="202.5,-37.5 202.5,-54.5 257.5,-54.5 257.5,-37.5 202.5,-37.5"/>
<text text-anchor="start" x="205.5" y="-44.5" font-family="Courier,monospace" font-weight="bold" font-size="10.00">FILM</text>
<polygon fill="none" stroke="black" points="202.5,-20.5 202.5,-37.5 257.5,-37.5 257.5,-20.5 202.5,-20.5"/>
<text text-anchor="start" x="205.5" y="-27.5" font-family="Courier,monospace" text-decoration="underline" font-size="10.00">FilmId</text>
<polygon fill="none" stroke="black" points="202.5,-3.5 202.5,-20.5 257.5,-20.5 257.5,-3.5 202.5,-3.5"/>
<text text-anchor="start" x="205.5" y="-10.5" font-family="Courier,monospace" text-decoration="underline" font-size="10.00">FilmName</text>
</g>
<!-- NOMINATION -->
<g id="node2" class="node">
<title>NOMINATION</title>
<polygon fill="white" stroke="transparent" points="292,-255.5 167,-255.5 167,-77.5 292,-77.5 292,-255.5"/>
<polygon fill="none" stroke="black" points="175.5,-234.5 175.5,-251.5 284.5,-251.5 284.5,-234.5 175.5,-234.5"/>
<text text-anchor="start" x="178.5" y="-241.5" font-family="Courier,monospace" font-weight="bold" font-size="10.00">NOMINATION</text>
<polygon fill="none" stroke="black" points="175.5,-217.5 175.5,-234.5 284.5,-234.5 284.5,-217.5 175.5,-217.5"/>
<text text-anchor="start" x="178.5" y="-224.5" font-family="Courier,monospace" text-decoration="underline" font-size="10.00">ClassName</text>
<polygon fill="none" stroke="black" points="175.5,-200.5 175.5,-217.5 284.5,-217.5 284.5,-200.5 175.5,-200.5"/>
<text text-anchor="start" x="178.5" y="-207.5" font-family="Courier,monospace" text-decoration="underline" font-size="10.00">NomId</text>
<polygon fill="none" stroke="black" points="175.5,-183.5 175.5,-200.5 284.5,-200.5 284.5,-183.5 175.5,-183.5"/>
<text text-anchor="start" x="178.5" y="-190.5" font-family="Courier,monospace" text-decoration="underline" font-size="10.00">CeremonyNumber</text>
<polygon fill="none" stroke="black" points="175.5,-166.5 175.5,-183.5 284.5,-183.5 284.5,-166.5 175.5,-166.5"/>
<text text-anchor="start" x="178.5" y="-173.5" font-family="Courier,monospace" text-decoration="underline" font-size="10.00">CanonicalCategory</text>
<polygon fill="none" stroke="black" points="175.5,-149.5 175.5,-166.5 284.5,-166.5 284.5,-149.5 175.5,-149.5"/>
<text text-anchor="start" x="178.5" y="-155.5" font-family="Courier,monospace" font-size="10.00">NominationName</text>
<polygon fill="none" stroke="black" points="175.5,-132.5 175.5,-149.5 284.5,-149.5 284.5,-132.5 175.5,-132.5"/>
<text text-anchor="start" x="178.5" y="-138.5" font-family="Courier,monospace" font-size="10.00">Winner</text>
<polygon fill="none" stroke="black" points="175.5,-115.5 175.5,-132.5 284.5,-132.5 284.5,-115.5 175.5,-115.5"/>
<text text-anchor="start" x="178.5" y="-121.5" font-family="Courier,monospace" font-size="10.00">Detail ?</text>
<polygon fill="none" stroke="black" points="175.5,-98.5 175.5,-115.5 284.5,-115.5 284.5,-98.5 175.5,-98.5"/>
<text text-anchor="start" x="178.5" y="-104.5" font-family="Courier,monospace" font-size="10.00">Note ?</text>
<polygon fill="none" stroke="black" points="175.5,-81.5 175.5,-98.5 284.5,-98.5 284.5,-81.5 175.5,-81.5"/>
<text text-anchor="start" x="178.5" y="-87.5" font-family="Courier,monospace" font-size="10.00">Citation ?</text>
</g>
<!-- CATEGORY -->
<g id="node3" class="node">
<title>CATEGORY</title>
<polygon fill="white" stroke="transparent" points="453,-222.5 328,-222.5 328,-146.5 453,-146.5 453,-222.5"/>
<polygon fill="none" stroke="black" points="336.5,-201.5 336.5,-218.5 445.5,-218.5 445.5,-201.5 336.5,-201.5"/>
<text text-anchor="start" x="339.5" y="-208.5" font-family="Courier,monospace" font-weight="bold" font-size="10.00">CATEGORY</text>
<polygon fill="none" stroke="black" points="336.5,-184.5 336.5,-201.5 445.5,-201.5 445.5,-184.5 336.5,-184.5"/>
<text text-anchor="start" x="339.5" y="-191.5" font-family="Courier,monospace" text-decoration="underline" font-size="10.00">ClassName</text>
<polygon fill="none" stroke="black" points="336.5,-167.5 336.5,-184.5 445.5,-184.5 445.5,-167.5 336.5,-167.5"/>
<text text-anchor="start" x="339.5" y="-174.5" font-family="Courier,monospace" text-decoration="underline" font-size="10.00">CanonicalCategory</text>
<polygon fill="none" stroke="black" points="336.5,-150.5 336.5,-167.5 445.5,-167.5 445.5,-150.5 336.5,-150.5"/>
<text text-anchor="start" x="339.5" y="-156.5" font-family="Courier,monospace" font-size="10.00">CategoryName</text>
</g>
<!-- NOMINATION&#45;&gt;CATEGORY -->
<g id="edge1" class="edge">
<title>NOMINATION:ClassName&#45;&gt;CATEGORY:ClassName</title>
<path fill="none" stroke="black" d="M285.5,-226.5C308.17,-226.5 309.18,-202.57 325.42,-195.47"/>
<polygon fill="black" stroke="black" points="326.35,-198.85 335.5,-193.5 325.01,-191.98 326.35,-198.85"/>
</g>
<!-- NOMINATION&#45;&gt;CATEGORY -->
<g id="edge3" class="edge">
<title>NOMINATION:CanonicalCategory&#45;&gt;CATEGORY:CanonicalCategory</title>
<path fill="none" stroke="black" d="M285.5,-175.5C303.9,-175.5 310.88,-175.5 325.35,-175.5"/>
<polygon fill="black" stroke="black" points="325.5,-179 335.5,-175.5 325.5,-172 325.5,-179"/>
</g>
<!-- CEREMONY -->
<g id="node4" class="node">
<title>CEREMONY</title>
<polygon fill="white" stroke="transparent" points="444,-300 337,-300 337,-241 444,-241 444,-300"/>
<polygon fill="none" stroke="black" points="345.5,-278.5 345.5,-295.5 436.5,-295.5 436.5,-278.5 345.5,-278.5"/>
<text text-anchor="start" x="348.5" y="-285.5" font-family="Courier,monospace" font-weight="bold" font-size="10.00">CEREMONY</text>
<polygon fill="none" stroke="black" points="345.5,-261.5 345.5,-278.5 436.5,-278.5 436.5,-261.5 345.5,-261.5"/>
<text text-anchor="start" x="348.5" y="-268.5" font-family="Courier,monospace" text-decoration="underline" font-size="10.00">CeremonyNumber</text>
<polygon fill="none" stroke="black" points="345.5,-244.5 345.5,-261.5 436.5,-261.5 436.5,-244.5 345.5,-244.5"/>
<text text-anchor="start" x="348.5" y="-250.5" font-family="Courier,monospace" font-size="10.00">Year</text>
</g>
<!-- NOMINATION&#45;&gt;CEREMONY -->
<g id="edge2" class="edge">
<title>NOMINATION:CeremonyNumber&#45;&gt;CEREMONY:CeremonyNumber</title>
<path fill="none" stroke="black" d="M285.5,-192.5C324.74,-192.5 305.71,-256.29 334.48,-267.75"/>
<polygon fill="black" stroke="black" points="334.05,-271.22 344.5,-269.5 335.25,-264.33 334.05,-271.22"/>
</g>
<!-- CLASS -->
<g id="node5" class="node">
<title>CLASS</title>
<polygon fill="white" stroke="transparent" points="566,-223.5 489,-223.5 489,-181.5 566,-181.5 566,-223.5"/>
<polygon fill="none" stroke="black" points="497.5,-202.5 497.5,-219.5 558.5,-219.5 558.5,-202.5 497.5,-202.5"/>
<text text-anchor="start" x="500.5" y="-209.5" font-family="Courier,monospace" font-weight="bold" font-size="10.00">CLASS</text>
<polygon fill="none" stroke="black" points="497.5,-185.5 497.5,-202.5 558.5,-202.5 558.5,-185.5 497.5,-185.5"/>
<text text-anchor="start" x="500.5" y="-192.5" font-family="Courier,monospace" text-decoration="underline" font-size="10.00">ClassName</text>
</g>
<!-- CATEGORY&#45;&gt;CLASS -->
<g id="edge4" class="edge">
<title>CATEGORY:ClassName&#45;&gt;CLASS:ClassName</title>
<path fill="none" stroke="black" d="M446.5,-193.5C464.9,-193.5 471.88,-193.5 486.35,-193.5"/>
<polygon fill="black" stroke="black" points="486.5,-197 496.5,-193.5 486.5,-190 486.5,-197"/>
</g>
<!-- NOMINEE -->
<g id="node6" class="node">
<title>NOMINEE</title>
<polygon fill="white" stroke="transparent" points="268,-333 191,-333 191,-274 268,-274 268,-333"/>
<polygon fill="none" stroke="black" points="199.5,-311.5 199.5,-328.5 260.5,-328.5 260.5,-311.5 199.5,-311.5"/>
<text text-anchor="start" x="202.5" y="-318.5" font-family="Courier,monospace" font-weight="bold" font-size="10.00">NOMINEE</text>
<polygon fill="none" stroke="black" points="199.5,-294.5 199.5,-311.5 260.5,-311.5 260.5,-294.5 199.5,-294.5"/>
<text text-anchor="start" x="202.5" y="-301.5" font-family="Courier,monospace" text-decoration="underline" font-size="10.00">NomineeId</text>
<polygon fill="none" stroke="black" points="199.5,-277.5 199.5,-294.5 260.5,-294.5 260.5,-277.5 199.5,-277.5"/>
<text text-anchor="start" x="202.5" y="-283.5" font-family="Courier,monospace" font-size="10.00">Name</text>
</g>
<!-- NOMINATION_FILM -->
<g id="node7" class="node">
<title>NOMINATION_FILM</title>
<polygon fill="white" stroke="transparent" points="128,-128 3,-128 3,-1 128,-1 128,-128"/>
<polygon fill="none" stroke="black" points="11.5,-106.5 11.5,-123.5 120.5,-123.5 120.5,-106.5 11.5,-106.5"/>
<text text-anchor="start" x="14.5" y="-113.5" font-family="Courier,monospace" font-weight="bold" font-size="10.00">NOMINATION_FILM</text>
<polygon fill="none" stroke="black" points="11.5,-89.5 11.5,-106.5 120.5,-106.5 120.5,-89.5 11.5,-89.5"/>
<text text-anchor="start" x="14.5" y="-96.5" font-family="Courier,monospace" text-decoration="underline" font-size="10.00">ClassName</text>
<polygon fill="none" stroke="black" points="11.5,-72.5 11.5,-89.5 120.5,-89.5 120.5,-72.5 11.5,-72.5"/>
<text text-anchor="start" x="14.5" y="-79.5" font-family="Courier,monospace" text-decoration="underline" font-size="10.00">NomId</text>
<polygon fill="none" stroke="black" points="11.5,-55.5 11.5,-72.5 120.5,-72.5 120.5,-55.5 11.5,-55.5"/>
<text text-anchor="start" x="14.5" y="-62.5" font-family="Courier,monospace" text-decoration="underline" font-size="10.00">CeremonyNumber</text>
<polygon fill="none" stroke="black" points="11.5,-38.5 11.5,-55.5 120.5,-55.5 120.5,-38.5 11.5,-38.5"/>
<text text-anchor="start" x="14.5" y="-45.5" font-family="Courier,monospace" text-decoration="underline" font-size="10.00">CanonicalCategory</text>
<polygon fill="none" stroke="black" points="11.5,-21.5 11.5,-38.5 120.5,-38.5 120.5,-21.5 11.5,-21.5"/>
<text text-anchor="start" x="14.5" y="-28.5" font-family="Courier,monospace" text-decoration="underline" font-size="10.00">FilmId</text>
<polygon fill="none" stroke="black" points="11.5,-4.5 11.5,-21.5 120.5,-21.5 120.5,-4.5 11.5,-4.5"/>
<text text-anchor="start" x="14.5" y="-11.5" font-family="Courier,monospace" text-decoration="underline" font-size="10.00">FilmName</text>
</g>
<!-- NOMINATION_FILM&#45;&gt;FILM -->
<g id="edge9" class="edge">
<title>NOMINATION_FILM:FilmId&#45;&gt;FILM:FilmId</title>
<path fill="none" stroke="black" d="M121.5,-29.5C153.45,-29.5 163.86,-28.69 191.44,-28.53"/>
<polygon fill="black" stroke="black" points="191.51,-32.03 201.5,-28.5 191.49,-25.03 191.51,-32.03"/>
</g>
<!-- NOMINATION_FILM&#45;&gt;FILM -->
<g id="edge10" class="edge">
<title>NOMINATION_FILM:FilmName&#45;&gt;FILM:FilmName</title>
<path fill="none" stroke="black" d="M121.5,-12.5C153.45,-12.5 163.86,-11.69 191.44,-11.53"/>
<polygon fill="black" stroke="black" points="191.51,-15.03 201.5,-11.5 191.49,-8.03 191.51,-15.03"/>
</g>
<!-- NOMINATION_FILM&#45;&gt;NOMINATION -->
<g id="edge5" class="edge">
<title>NOMINATION_FILM:ClassName&#45;&gt;NOMINATION:ClassName</title>
<path fill="none" stroke="black" d="M121.5,-98.5C179.22,-98.5 121.18,-211 164.43,-225.06"/>
<polygon fill="black" stroke="black" points="164.11,-228.55 174.5,-226.5 165.1,-221.62 164.11,-228.55"/>
</g>
<!-- NOMINATION_FILM&#45;&gt;NOMINATION -->
<g id="edge6" class="edge">
<title>NOMINATION_FILM:NomId&#45;&gt;NOMINATION:NomId</title>
<path fill="none" stroke="black" d="M121.5,-81.5C179.22,-81.5 121.18,-194 164.43,-208.06"/>
<polygon fill="black" stroke="black" points="164.11,-211.55 174.5,-209.5 165.1,-204.62 164.11,-211.55"/>
</g>
<!-- NOMINATION_FILM&#45;&gt;NOMINATION -->
<g id="edge7" class="edge">
<title>NOMINATION_FILM:CeremonyNumber&#45;&gt;NOMINATION:CeremonyNumber</title>
<path fill="none" stroke="black" d="M121.5,-63.5C179.61,-63.5 120.87,-176.88 164.37,-191.05"/>
<polygon fill="black" stroke="black" points="164.11,-194.55 174.5,-192.5 165.1,-187.62 164.11,-194.55"/>
</g>
<!-- NOMINATION_FILM&#45;&gt;NOMINATION -->
<g id="edge8" class="edge">
<title>NOMINATION_FILM:CanonicalCategory&#45;&gt;NOMINATION:CanonicalCategory</title>
<path fill="none" stroke="black" d="M121.5,-46.5C179.61,-46.5 120.87,-159.88 164.37,-174.05"/>
<polygon fill="black" stroke="black" points="164.11,-177.55 174.5,-175.5 165.1,-170.62 164.11,-177.55"/>
</g>
<!-- NOMINATION_NOMINEE -->
<g id="node8" class="node">
<title>NOMINATION_NOMINEE</title>
<polygon fill="white" stroke="transparent" points="131,-256.5 0,-256.5 0,-146.5 131,-146.5 131,-256.5"/>
<polygon fill="none" stroke="black" points="8.5,-235.5 8.5,-252.5 123.5,-252.5 123.5,-235.5 8.5,-235.5"/>
<text text-anchor="start" x="11.5" y="-242.5" font-family="Courier,monospace" font-weight="bold" font-size="10.00">NOMINATION_NOMINEE</text>
<polygon fill="none" stroke="black" points="8.5,-218.5 8.5,-235.5 123.5,-235.5 123.5,-218.5 8.5,-218.5"/>
<text text-anchor="start" x="11.5" y="-225.5" font-family="Courier,monospace" text-decoration="underline" font-size="10.00">ClassName</text>
<polygon fill="none" stroke="black" points="8.5,-201.5 8.5,-218.5 123.5,-218.5 123.5,-201.5 8.5,-201.5"/>
<text text-anchor="start" x="11.5" y="-208.5" font-family="Courier,monospace" text-decoration="underline" font-size="10.00">NomId</text>
<polygon fill="none" stroke="black" points="8.5,-184.5 8.5,-201.5 123.5,-201.5 123.5,-184.5 8.5,-184.5"/>
<text text-anchor="start" x="11.5" y="-191.5" font-family="Courier,monospace" text-decoration="underline" font-size="10.00">CeremonyNumber</text>
<polygon fill="none" stroke="black" points="8.5,-167.5 8.5,-184.5 123.5,-184.5 123.5,-167.5 8.5,-167.5"/>
<text text-anchor="start" x="11.5" y="-174.5" font-family="Courier,monospace" text-decoration="underline" font-size="10.00">CanonicalCategory</text>
<polygon fill="none" stroke="black" points="8.5,-150.5 8.5,-167.5 123.5,-167.5 123.5,-150.5 8.5,-150.5"/>
<text text-anchor="start" x="11.5" y="-157.5" font-family="Courier,monospace" text-decoration="underline" font-size="10.00">NomineeId</text>
</g>
<!-- NOMINATION_NOMINEE&#45;&gt;NOMINATION -->
<g id="edge11" class="edge">
<title>NOMINATION_NOMINEE:ClassName&#45;&gt;NOMINATION:ClassName</title>
<path fill="none" stroke="black" d="M124.5,-227.5C142.91,-227.5 149.87,-226.81 164.35,-226.58"/>
<polygon fill="black" stroke="black" points="164.53,-230.08 174.5,-226.5 164.47,-223.08 164.53,-230.08"/>
</g>
<!-- NOMINATION_NOMINEE&#45;&gt;NOMINATION -->
<g id="edge12" class="edge">
<title>NOMINATION_NOMINEE:NomId&#45;&gt;NOMINATION:NomId</title>
<path fill="none" stroke="black" d="M124.5,-210.5C142.91,-210.5 149.87,-209.81 164.35,-209.58"/>
<polygon fill="black" stroke="black" points="164.53,-213.08 174.5,-209.5 164.47,-206.08 164.53,-213.08"/>
</g>
<!-- NOMINATION_NOMINEE&#45;&gt;NOMINATION -->
<g id="edge13" class="edge">
<title>NOMINATION_NOMINEE:CeremonyNumber&#45;&gt;NOMINATION:CeremonyNumber</title>
<path fill="none" stroke="black" d="M124.5,-192.5C142.9,-192.5 149.88,-192.5 164.35,-192.5"/>
<polygon fill="black" stroke="black" points="164.5,-196 174.5,-192.5 164.5,-189 164.5,-196"/>
</g>
<!-- NOMINATION_NOMINEE&#45;&gt;NOMINATION -->
<g id="edge14" class="edge">
<title>NOMINATION_NOMINEE:CanonicalCategory&#45;&gt;NOMINATION:CanonicalCategory</title>
<path fill="none" stroke="black" d="M124.5,-175.5C142.9,-175.5 149.88,-175.5 164.35,-175.5"/>
<polygon fill="black" stroke="black" points="164.5,-179 174.5,-175.5 164.5,-172 164.5,-179"/>
</g>
<!-- NOMINATION_NOMINEE&#45;&gt;NOMINEE -->
<g id="edge15" class="edge">
<title>NOMINATION_NOMINEE:NomineeId&#45;&gt;NOMINEE:NomineeId</title>
<path fill="none" stroke="black" d="M124.5,-158.5C192.66,-158.5 133.52,-287.71 188.26,-301.34"/>
<polygon fill="black" stroke="black" points="188.17,-304.85 198.5,-302.5 188.96,-297.9 188.17,-304.85"/>
</g>
</g>
</svg>
