<?xml version="1.0" encoding="UTF-8" standalone="no"?>
<!DOCTYPE svg PUBLIC "-//W3C//DTD SVG 1.1//EN"
 "http://www.w3.org/Graphics/SVG/1.1/DTD/svg11.dtd">
<!-- Generated by graphviz version 2.43.0 (0)
 -->
<!-- Title: %3 Pages: 1 -->
<svg width="556pt" height="350pt"
 viewBox="0.00 0.00 556.00 349.50" xmlns="http://www.w3.org/2000/svg" xmlns:xlink="http://www.w3.org/1999/xlink">
<g id="graph0" class="graph" transform="scale(1 1) rotate(0) translate(4 345.5)">
<title>%3</title>
<polygon fill="white" stroke="transparent" points="-4,4 -4,-345.5 552,-345.5 552,4 -4,4"/>
<!-- FILM -->
<g id="node1" class="node">
<title>FILM</title>
<polygon fill="white" stroke="transparent" points="256,-145 185,-145 185,-86 256,-86 256,-145"/>
<polygon fill="none" stroke="black" points="193.5,-123.5 193.5,-140.5 248.5,-140.5 248.5,-123.5 193.5,-123.5"/>
<text text-anchor="start" x="196.5" y="-130.5" font-family="Courier,monospace" font-weight="bold" font-size="10.00">FILM</text>
<polygon fill="none" stroke="black" points="193.5,-106.5 193.5,-123.5 248.5,-123.5 248.5,-106.5 193.5,-106.5"/>
<text text-anchor="start" x="196.5" y="-113.5" font-family="Courier,monospace" text-decoration="underline" font-size="10.00">FilmId</text>
<polygon fill="none" stroke="black" points="193.5,-89.5 193.5,-106.5 248.5,-106.5 248.5,-89.5 193.5,-89.5"/>
<text text-anchor="start" x="196.5" y="-96.5" font-family="Courier,monospace" text-decoration="underline" font-size="10.00">FilmName</text>
</g>
<!-- NOMINATION -->
<g id="node2" class="node">
<title>NOMINATION</title>
<polygon fill="white" stroke="transparent" points="274,-341.5 167,-341.5 167,-163.5 274,-163.5 274,-341.5"/>
<polygon fill="none" stroke="black" points="175.5,-320.5 175.5,-337.5 266.5,-337.5 266.5,-320.5 175.5,-320.5"/>
<text text-anchor="start" x="178.5" y="-327.5" font-family="Courier,monospace" font-weight="bold" font-size="10.00">NOMINATION</text>
<polygon fill="none" stroke="black" points="175.5,-303.5 175.5,-320.5 266.5,-320.5 266.5,-303.5 175.5,-303.5"/>
<text text-anchor="start" x="178.5" y="-310.5" font-family="Courier,monospace" text-decoration="underline" font-size="10.00">NomId</text>
<polygon fill="none" stroke="black" points="175.5,-286.5 175.5,-303.5 266.5,-303.5 266.5,-286.5 175.5,-286.5"/>
<text text-anchor="start" x="178.5" y="-292.5" font-family="Courier,monospace" font-size="10.00">ClassName</text>
<polygon fill="none" stroke="black" points="175.5,-269.5 175.5,-286.5 266.5,-286.5 266.5,-269.5 175.5,-269.5"/>
<text text-anchor="start" x="178.5" y="-275.5" font-family="Courier,monospace" font-size="10.00">CeremonyNumber</text>
<polygon fill="none" stroke="black" points="175.5,-252.5 175.5,-269.5 266.5,-269.5 266.5,-252.5 175.5,-252.5"/>
<text text-anchor="start" x="178.5" y="-258.5" font-family="Courier,monospace" font-size="10.00">CategoryName</text>
<polygon fill="none" stroke="black" points="175.5,-235.5 175.5,-252.5 266.5,-252.5 266.5,-235.5 175.5,-235.5"/>
<text text-anchor="start" x="178.5" y="-241.5" font-family="Courier,monospace" font-size="10.00">NominationName</text>
<polygon fill="none" stroke="black" points="175.5,-218.5 175.5,-235.5 266.5,-235.5 266.5,-218.5 175.5,-218.5"/>
<text text-anchor="start" x="178.5" y="-224.5" font-family="Courier,monospace" font-size="10.00">Winner</text>
<polygon fill="none" stroke="black" points="175.5,-201.5 175.5,-218.5 266.5,-218.5 266.5,-201.5 175.5,-201.5"/>
<text text-anchor="start" x="178.5" y="-207.5" font-family="Courier,monospace" font-size="10.00">Detail ?</text>
<polygon fill="none" stroke="black" points="175.5,-184.5 175.5,-201.5 266.5,-201.5 266.5,-184.5 175.5,-184.5"/>
<text text-anchor="start" x="178.5" y="-190.5" font-family="Courier,monospace" font-size="10.00">Note ?</text>
<polygon fill="none" stroke="black" points="175.5,-167.5 175.5,-184.5 266.5,-184.5 266.5,-167.5 175.5,-167.5"/>
<text text-anchor="start" x="178.5" y="-173.5" font-family="Courier,monospace" font-size="10.00">Citation ?</text>
</g>
<!-- CATEGORY -->
<g id="node3" class="node">
<title>CATEGORY</title>
<polygon fill="white" stroke="transparent" points="435,-324.5 310,-324.5 310,-248.5 435,-248.5 435,-324.5"/>
<polygon fill="none" stroke="black" points="318.5,-303.5 318.5,-320.5 427.5,-320.5 427.5,-303.5 318.5,-303.5"/>
<text text-anchor="start" x="321.5" y="-310.5" font-family="Courier,monospace" font-weight="bold" font-size="10.00">CATEGORY</text>
<polygon fill="none" stroke="black" points="318.5,-286.5 318.5,-303.5 427.5,-303.5 427.5,-286.5 318.5,-286.5"/>
<text text-anchor="start" x="321.5" y="-293.5" font-family="Courier,monospace" text-decoration="underline" font-size="10.00">ClassName</text>
<polygon fill="none" stroke="black" points="318.5,-269.5 318.5,-286.5 427.5,-286.5 427.5,-269.5 318.5,-269.5"/>
<text text-anchor="start" x="321.5" y="-276.5" font-family="Courier,monospace" text-decoration="underline" font-size="10.00">CategoryName</text>
<polygon fill="none" stroke="black" points="318.5,-252.5 318.5,-269.5 427.5,-269.5 427.5,-252.5 318.5,-252.5"/>
<text text-anchor="start" x="321.5" y="-258.5" font-family="Courier,monospace" font-size="10.00">CanonicalCategory</text>
</g>
<!-- NOMINATION&#45;&gt;CATEGORY -->
<g id="edge1" class="edge">
<title>NOMINATION:ClassName&#45;&gt;CATEGORY:ClassName</title>
<path fill="none" stroke="black" d="M267.5,-295.5C285.9,-295.5 292.88,-295.5 307.35,-295.5"/>
<polygon fill="black" stroke="black" points="307.5,-299 317.5,-295.5 307.5,-292 307.5,-299"/>
</g>
<!-- NOMINATION&#45;&gt;CATEGORY -->
<g id="edge3" class="edge">
<title>NOMINATION:CategoryName&#45;&gt;CATEGORY:CategoryName</title>
<path fill="none" stroke="black" d="M267.5,-261.5C287,-261.5 292.54,-272.68 307.45,-276.35"/>
<polygon fill="black" stroke="black" points="307.17,-279.84 317.5,-277.5 307.96,-272.88 307.17,-279.84"/>
</g>
<!-- CEREMONY -->
<g id="node4" class="node">
<title>CEREMONY</title>
<polygon fill="white" stroke="transparent" points="426,-230 319,-230 319,-171 426,-171 426,-230"/>
<polygon fill="none" stroke="black" points="327.5,-208.5 327.5,-225.5 418.5,-225.5 418.5,-208.5 327.5,-208.5"/>
<text text-anchor="start" x="330.5" y="-215.5" font-family="Courier,monospace" font-weight="bold" font-size="10.00">CEREMONY</text>
<polygon fill="none" stroke="black" points="327.5,-191.5 327.5,-208.5 418.5,-208.5 418.5,-191.5 327.5,-191.5"/>
<text text-anchor="start" x="330.5" y="-198.5" font-family="Courier,monospace" text-decoration="underline" font-size="10.00">CeremonyNumber</text>
<polygon fill="none" stroke="black" points="327.5,-174.5 327.5,-191.5 418.5,-191.5 418.5,-174.5 327.5,-174.5"/>
<text text-anchor="start" x="330.5" y="-180.5" font-family="Courier,monospace" font-size="10.00">Year</text>
</g>
<!-- NOMINATION&#45;&gt;CEREMONY -->
<g id="edge2" class="edge">
<title>NOMINATION:CeremonyNumber&#45;&gt;CEREMONY:CeremonyNumber</title>
<path fill="none" stroke="black" d="M267.5,-278.5C307.39,-278.5 287.24,-213.06 316.34,-201.3"/>
<polygon fill="black" stroke="black" points="317.26,-204.69 326.5,-199.5 316.04,-197.8 317.26,-204.69"/>
</g>
<!-- CLASS -->
<g id="node5" class="node">
<title>CLASS</title>
<polygon fill="white" stroke="transparent" points="548,-325.5 471,-325.5 471,-283.5 548,-283.5 548,-325.5"/>
<polygon fill="none" stroke="black" points="479.5,-304.5 479.5,-321.5 540.5,-321.5 540.5,-304.5 479.5,-304.5"/>
<text text-anchor="start" x="482.5" y="-311.5" font-family="Courier,monospace" font-weight="bold" font-size="10.00">CLASS</text>
<polygon fill="none" stroke="black" points="479.5,-287.5 479.5,-304.5 540.5,-304.5 540.5,-287.5 479.5,-287.5"/>
<text text-anchor="start" x="482.5" y="-294.5" font-family="Courier,monospace" text-decoration="underline" font-size="10.00">ClassName</text>
</g>
<!-- CATEGORY&#45;&gt;CLASS -->
<g id="edge4" class="edge">
<title>CATEGORY:ClassName&#45;&gt;CLASS:ClassName</title>
<path fill="none" stroke="black" d="M428.5,-295.5C446.9,-295.5 453.88,-295.5 468.35,-295.5"/>
<polygon fill="black" stroke="black" points="468.5,-299 478.5,-295.5 468.5,-292 468.5,-299"/>
</g>
<!-- NOMINEE -->
<g id="node6" class="node">
<title>NOMINEE</title>
<polygon fill="white" stroke="transparent" points="259,-59 182,-59 182,0 259,0 259,-59"/>
<polygon fill="none" stroke="black" points="190.5,-37.5 190.5,-54.5 251.5,-54.5 251.5,-37.5 190.5,-37.5"/>
<text text-anchor="start" x="193.5" y="-44.5" font-family="Courier,monospace" font-weight="bold" font-size="10.00">NOMINEE</text>
<polygon fill="none" stroke="black" points="190.5,-20.5 190.5,-37.5 251.5,-37.5 251.5,-20.5 190.5,-20.5"/>
<text text-anchor="start" x="193.5" y="-27.5" font-family="Courier,monospace" text-decoration="underline" font-size="10.00">NomineeId</text>
<polygon fill="none" stroke="black" points="190.5,-3.5 190.5,-20.5 251.5,-20.5 251.5,-3.5 190.5,-3.5"/>
<text text-anchor="start" x="193.5" y="-9.5" font-family="Courier,monospace" font-size="10.00">Name</text>
</g>
<!-- NOMINATION_FILM -->
<g id="node7" class="node">
<title>NOMINATION_FILM</title>
<polygon fill="white" stroke="transparent" points="122,-170.5 9,-170.5 9,-94.5 122,-94.5 122,-170.5"/>
<polygon fill="none" stroke="black" points="17.5,-149.5 17.5,-166.5 114.5,-166.5 114.5,-149.5 17.5,-149.5"/>
<text text-anchor="start" x="20.5" y="-156.5" font-family="Courier,monospace" font-weight="bold" font-size="10.00">NOMINATION_FILM</text>
<polygon fill="none" stroke="black" points="17.5,-132.5 17.5,-149.5 114.5,-149.5 114.5,-132.5 17.5,-132.5"/>
<text text-anchor="start" x="20.5" y="-139.5" font-family="Courier,monospace" text-decoration="underline" font-size="10.00">NomId</text>
<polygon fill="none" stroke="black" points="17.5,-115.5 17.5,-132.5 114.5,-132.5 114.5,-115.5 17.5,-115.5"/>
<text text-anchor="start" x="20.5" y="-122.5" font-family="Courier,monospace" text-decoration="underline" font-size="10.00">FilmId</text>
<polygon fill="none" stroke="black" points="17.5,-98.5 17.5,-115.5 114.5,-115.5 114.5,-98.5 17.5,-98.5"/>
<text text-anchor="start" x="20.5" y="-105.5" font-family="Courier,monospace" text-decoration="underline" font-size="10.00">FilmName</text>
</g>
<!-- NOMINATION_FILM&#45;&gt;FILM -->
<g id="edge6" class="edge">
<title>NOMINATION_FILM:FilmId&#45;&gt;FILM:FilmId</title>
<path fill="none" stroke="black" d="M115.5,-123.5C146.32,-123.5 156.05,-116.3 182.42,-114.78"/>
<polygon fill="black" stroke="black" points="182.6,-118.28 192.5,-114.5 182.41,-111.28 182.6,-118.28"/>
</g>
<!-- NOMINATION_FILM&#45;&gt;FILM -->
<g id="edge7" class="edge">
<title>NOMINATION_FILM:FilmName&#45;&gt;FILM:FilmName</title>
<path fill="none" stroke="black" d="M115.5,-106.5C146.32,-106.5 156.05,-99.3 182.42,-97.78"/>
<polygon fill="black" stroke="black" points="182.6,-101.28 192.5,-97.5 182.41,-94.28 182.6,-101.28"/>
</g>
<!-- NOMINATION_FILM&#45;&gt;NOMINATION -->
<g id="edge5" class="edge">
<title>NOMINATION_FILM:NomId&#45;&gt;NOMINATION:NomId</title>
<path fill="none" stroke="black" d="M115.5,-141.5C192.13,-141.5 103.25,-296.84 164.36,-311.41"/>
<polygon fill="black" stroke="black" points="164.18,-314.91 174.5,-312.5 164.93,-307.95 164.18,-314.91"/>
</g>
<!-- NOMINATION_NOMINEE -->
<g id="node8" class="node">
<title>NOMINATION_NOMINEE</title>
<polygon fill="white" stroke="transparent" points="131,-76 0,-76 0,-17 131,-17 131,-76"/>
<polygon fill="none" stroke="black" points="8.5,-54.5 8.5,-71.5 123.5,-71.5 123.5,-54.5 8.5,-54.5"/>
<text text-anchor="start" x="11.5" y="-61.5" font-family="Courier,monospace" font-weight="bold" font-size="10.00">NOMINATION_NOMINEE</text>
<polygon fill="none" stroke="black" points="8.5,-37.5 8.5,-54.5 123.5,-54.5 123.5,-37.5 8.5,-37.5"/>
<text text-anchor="start" x="11.5" y="-44.5" font-family="Courier,monospace" text-decoration="underline" font-size="10.00">NomId</text>
<polygon fill="none" stroke="black" points="8.5,-20.5 8.5,-37.5 123.5,-37.5 123.5,-20.5 8.5,-20.5"/>
<text text-anchor="start" x="11.5" y="-27.5" font-family="Courier,monospace" text-decoration="underline" font-size="10.00">NomineeId</text>
</g>
<!-- NOMINATION_NOMINEE&#45;&gt;NOMINATION -->
<g id="edge8" class="edge">
<title>NOMINATION_NOMINEE:NomId&#45;&gt;NOMINATION:NomId</title>
<path fill="none" stroke="black" d="M124.5,-45.5C241.57,-45.5 65.08,-296.58 164.38,-311.78"/>
<polygon fill="black" stroke="black" points="164.28,-315.28 174.5,-312.5 164.77,-308.3 164.28,-315.28"/>
</g>
<!-- NOMINATION_NOMINEE&#45;&gt;NOMINEE -->
<g id="edge9" class="edge">
<title>NOMINATION_NOMINEE:NomineeId&#45;&gt;NOMINEE:NomineeId</title>
<path fill="none" stroke="black" d="M124.5,-28.5C149.66,-28.5 158.39,-28.5 179.32,-28.5"/>
<polygon fill="black" stroke="black" points="179.5,-32 189.5,-28.5 179.5,-25 179.5,-32"/>
</g>
</g>
</svg>
